<?xml version="1.0" encoding="UTF-8"?>
<svg xmlns="http://www.w3.org/2000/svg" xmlns:xlink="http://www.w3.org/1999/xlink" width="150px" height="123px" viewBox="0 0 150 123" version="1.1">
<g id="surface1">
<path style=" stroke:none;fill-rule:nonzero;fill:rgb(0%,0%,0%);fill-opacity:1;" d="M 121.289062 0.175781 C 119.378906 0.527344 116.847656 1.546875 115.5 2.507812 C 114.515625 3.214844 113.402344 4.421875 113.050781 5.183594 C 112.898438 5.523438 112.59375 6.519531 112.371094 7.386719 C 111.574219 10.589844 111.925781 11.996094 113.660156 12.511719 C 114.445312 12.734375 115.429688 12.652344 116.179688 12.3125 C 116.460938 12.171875 117.105469 11.714844 117.609375 11.292969 C 119.589844 9.640625 120.867188 9.066406 122.320312 9.183594 C 123.351562 9.253906 124.230469 9.605469 125.496094 10.4375 C 128.085938 12.136719 129.785156 14.402344 130.523438 17.109375 C 130.804688 18.15625 130.828125 18.425781 130.828125 20.757812 C 130.839844 23.117188 130.816406 23.421875 130.453125 25.449219 C 129.386719 31.417969 128.472656 34.363281 126.339844 38.667969 C 125.285156 40.777344 124.582031 41.679688 122.800781 43.214844 C 122.203125 43.734375 121.417969 44.414062 121.066406 44.730469 C 118.558594 46.910156 116.894531 47.261719 112.910156 46.464844 C 108.351562 45.550781 105.820312 45.328125 100.078125 45.328125 C 94.933594 45.339844 94.605469 45.351562 86.261719 46.21875 C 80.261719 46.839844 79.453125 46.945312 64.570312 49.140625 C 62.34375 49.46875 59.472656 49.890625 58.183594 50.078125 C 56.425781 50.335938 55.628906 50.5 55.019531 50.757812 C 53.683594 51.308594 53.039062 51.425781 51.445312 51.414062 C 50.203125 51.402344 49.617188 51.332031 47.578125 50.898438 C 44.753906 50.3125 43.453125 49.960938 42.621094 49.527344 C 41.8125 49.128906 38.15625 46.628906 35.730469 44.847656 C 33.328125 43.0625 32.402344 42.5 30.632812 41.726562 C 27.222656 40.238281 26.015625 39.300781 22.839844 35.652344 C 21.269531 33.859375 20.027344 32.601562 19.839844 32.601562 C 19.675781 32.601562 19.40625 32.847656 18.996094 33.390625 C 18.703125 33.777344 18.539062 33.894531 18.28125 33.894531 C 18.046875 33.894531 17.847656 34.011719 17.636719 34.269531 L 17.308594 34.65625 L 17.390625 37.351562 C 17.484375 40.707031 17.519531 40.625 15.972656 41.410156 C 12.855469 42.980469 12 43.792969 10.289062 46.722656 C 8.859375 49.1875 8.53125 49.632812 7.183594 51.039062 C 4.722656 53.605469 4.652344 54.21875 6.503906 57.441406 C 8.15625 60.328125 8.625 60.890625 9.960938 61.546875 L 10.828125 61.980469 L 13.242188 61.945312 C 15.363281 61.921875 15.726562 61.945312 16.40625 62.144531 C 17.332031 62.4375 18.128906 62.917969 19.007812 63.75 C 19.371094 64.105469 19.78125 64.386719 19.910156 64.386719 C 20.238281 64.386719 20.90625 65.007812 21.46875 65.828125 C 22.042969 66.671875 23.730469 70.144531 24.257812 71.5625 L 24.632812 72.570312 L 24.445312 76.957031 C 24.339844 79.359375 24.164062 82.726562 24.070312 84.4375 C 23.964844 86.152344 23.917969 88.121094 23.953125 88.835938 C 24 89.730469 23.964844 90.363281 23.859375 90.890625 C 23.671875 91.734375 22.464844 94.628906 21.527344 96.460938 C 20.554688 98.371094 17.90625 102.207031 15.679688 104.9375 C 13.394531 107.730469 8.261719 112.960938 7.148438 113.617188 C 6.65625 113.910156 6.527344 113.933594 5.097656 113.945312 L 3.574219 113.957031 L 2.402344 114.507812 C 1.089844 115.128906 0.820312 115.34375 0.375 116.105469 C -0.046875 116.808594 -0.0703125 118.132812 0.316406 118.859375 C 0.761719 119.691406 1.253906 120.066406 2.167969 120.253906 C 3.714844 120.585938 5.402344 120.714844 7.148438 120.644531 C 9.679688 120.550781 10.476562 120.265625 12.363281 118.859375 C 13.617188 117.921875 13.957031 117.746094 15.117188 117.40625 C 16.324219 117.042969 16.910156 116.644531 18.234375 115.246094 C 20.8125 112.550781 22.394531 111.238281 25.78125 108.984375 C 29.90625 106.242188 32.144531 104.480469 33.246094 103.074219 C 33.550781 102.675781 34.289062 101.996094 34.910156 101.527344 C 36.550781 100.296875 38.636719 98.183594 39.398438 96.988281 C 39.75 96.4375 40.300781 95.757812 40.617188 95.476562 C 41.238281 94.925781 42.761719 93.878906 43.546875 93.492188 C 43.804688 93.363281 44.414062 92.953125 44.882812 92.601562 C 45.351562 92.238281 45.820312 91.945312 45.914062 91.945312 C 46.019531 91.945312 46.324219 92.085938 46.617188 92.25 C 47.050781 92.507812 47.367188 92.578125 48.445312 92.671875 C 50.695312 92.847656 52.992188 93.117188 53.847656 93.292969 C 54.925781 93.527344 55.957031 94.042969 56.566406 94.664062 C 56.988281 95.113281 59.542969 99.507812 61.78125 103.671875 C 62.730469 105.433594 64.839844 110.5 65.625 112.855469 C 65.871094 113.617188 65.871094 113.664062 65.683594 113.875 C 65.566406 114.003906 65.074219 114.238281 64.582031 114.402344 C 63.539062 114.742188 62.941406 115.1875 62.484375 115.964844 C 62.214844 116.433594 62.167969 116.644531 62.167969 117.394531 C 62.179688 118.34375 62.648438 120.066406 63.023438 120.492188 C 63.339844 120.832031 63.621094 120.902344 65.953125 121.160156 C 68.285156 121.417969 70.710938 121.417969 71.660156 121.136719 C 72.234375 120.972656 72.902344 120.300781 73.101562 119.667969 C 73.359375 118.882812 73.40625 116.679688 73.207031 114.34375 C 73.101562 113.148438 72.984375 111.671875 72.949219 111.0625 C 72.84375 109.617188 72.5625 107.871094 71.765625 103.917969 C 70.628906 98.207031 69.398438 91.289062 69.515625 91.171875 C 69.550781 91.136719 69.996094 91.019531 70.5 90.890625 C 71.015625 90.773438 71.742188 90.527344 72.128906 90.339844 L 72.832031 90.011719 L 78.046875 90.011719 C 84.164062 90.023438 86.777344 90.164062 90.726562 90.714844 C 93.878906 91.160156 94.992188 91.207031 95.976562 90.949219 C 97.195312 90.621094 98.226562 90.796875 99.058594 91.488281 C 99.574219 91.910156 99.832031 92.390625 100.324219 93.796875 C 100.828125 95.21875 101.367188 96.203125 102.246094 97.292969 C 102.65625 97.796875 103.511719 98.863281 104.144531 99.648438 C 104.777344 100.4375 105.75 101.703125 106.289062 102.464844 C 106.828125 103.226562 107.636719 104.351562 108.082031 104.960938 C 109.710938 107.191406 109.921875 108.1875 109.03125 109.511719 C 108.75 109.945312 105.9375 113.113281 104.390625 114.753906 L 103.394531 115.8125 L 102.105469 115.8125 C 100.839844 115.8125 100.804688 115.824219 99.914062 116.269531 C 98.871094 116.796875 97.792969 117.78125 97.371094 118.566406 C 96.878906 119.492188 97.078125 121.40625 97.746094 122.261719 C 98.261719 122.917969 98.519531 122.964844 101.074219 122.953125 C 103.558594 122.941406 107.460938 122.707031 107.894531 122.542969 C 108.304688 122.390625 109.382812 121.253906 111.9375 118.273438 C 113.261719 116.726562 114.773438 115.070312 115.300781 114.601562 C 115.933594 114.027344 116.496094 113.371094 117 112.609375 C 117.820312 111.367188 119.402344 108.304688 120.363281 106.078125 C 121.183594 104.175781 121.207031 103.730469 120.65625 100.332031 C 120.070312 96.636719 119.871094 94.84375 119.90625 93.703125 C 119.941406 92.8125 119.964844 92.707031 120.175781 92.671875 C 120.398438 92.636719 123.984375 93.726562 128.4375 95.160156 C 129.503906 95.511719 131.0625 95.933594 131.894531 96.097656 C 135.269531 96.789062 137.695312 98.605469 139.101562 101.515625 C 139.359375 102.03125 139.96875 103.554688 140.449219 104.902344 C 141.679688 108.339844 142.289062 110.558594 142.441406 112.175781 C 142.605469 113.921875 143.15625 115.117188 144.5625 116.738281 C 145.617188 117.96875 146.320312 118.15625 147.363281 117.5 C 148.289062 116.914062 149.367188 115.8125 149.660156 115.128906 C 149.894531 114.589844 149.929688 114.332031 149.929688 112.9375 L 149.941406 111.355469 L 148.371094 107.191406 C 146.308594 101.714844 145.605469 99.542969 145.183594 97.339844 C 144.585938 94.253906 144.363281 93.328125 143.964844 92.296875 C 143.507812 91.089844 142.007812 88.015625 141.738281 87.722656 C 141.632812 87.605469 141.199219 87.300781 140.777344 87.054688 C 140.285156 86.773438 139.710938 86.28125 139.171875 85.683594 C 138.714844 85.167969 137.753906 84.167969 137.039062 83.453125 C 135.773438 82.199219 135.714844 82.117188 135.46875 81.285156 C 135.257812 80.617188 135.023438 80.183594 134.414062 79.371094 C 133.617188 78.339844 133.617188 78.328125 133.441406 77.132812 C 133.335938 76.476562 133.195312 75.28125 133.125 74.472656 C 133.054688 73.660156 132.9375 72.417969 132.867188 71.714844 C 132.785156 71 132.714844 69.875 132.714844 69.195312 C 132.703125 67.820312 132.820312 68.148438 131.15625 64.5625 C 130.769531 63.714844 130.359375 62.765625 130.253906 62.449219 C 130.042969 61.816406 129.855469 60.210938 129.84375 59.015625 C 129.84375 58.589844 129.738281 57.898438 129.597656 57.441406 C 129.105469 55.824219 129.398438 54.851562 131.273438 51.929688 C 133.757812 48.070312 134.308594 47.132812 135.304688 45.128906 C 135.867188 44.015625 136.511719 42.757812 136.757812 42.335938 C 137.625 40.835938 138.398438 39.242188 138.703125 38.300781 C 138.867188 37.785156 139.289062 36.742188 139.640625 35.992188 C 140.003906 35.195312 140.460938 33.929688 140.730469 32.941406 C 142.125 27.886719 142.382812 26.351562 142.382812 23.304688 C 142.382812 17.992188 141 13.066406 138.210938 8.421875 C 137.191406 6.730469 136.59375 6.085938 135.726562 5.734375 C 135.292969 5.558594 134.789062 5.21875 134.273438 4.738281 C 133.078125 3.613281 131.800781 2.792969 129.316406 1.546875 C 127.546875 0.65625 126.5625 0.328125 125.742188 0.328125 C 125.390625 0.328125 124.804688 0.257812 124.453125 0.164062 C 123.679688 -0.0351562 122.460938 -0.0351562 121.289062 0.175781 Z M 124.640625 1.125 C 125.003906 1.21875 125.460938 1.253906 125.765625 1.21875 C 126.222656 1.160156 126.46875 1.21875 127.570312 1.6875 C 130.03125 2.734375 132.550781 4.257812 133.675781 5.40625 C 134.191406 5.945312 134.53125 6.167969 135.140625 6.402344 C 136.113281 6.777344 136.394531 7.082031 137.636719 9.160156 C 139.710938 12.640625 140.988281 16.464844 141.457031 20.523438 C 141.632812 22.058594 141.527344 25.835938 141.28125 27.171875 C 140.777344 29.917969 139.429688 34.550781 138.761719 35.863281 C 138.632812 36.121094 138.269531 37.023438 137.976562 37.84375 C 137.332031 39.605469 137.214844 39.875 136.195312 41.574219 C 135.761719 42.277344 135.09375 43.582031 134.695312 44.460938 C 133.828125 46.335938 133.265625 47.308594 131.285156 50.335938 C 130.464844 51.578125 129.609375 52.960938 129.363281 53.417969 C 128.519531 55.003906 128.367188 56.1875 128.789062 57.722656 C 128.953125 58.308594 129.023438 58.929688 129.023438 59.707031 C 129.023438 61.792969 129.234375 62.519531 130.886719 65.96875 L 131.777344 67.84375 L 131.789062 69.015625 C 131.789062 69.664062 131.847656 70.484375 131.929688 70.835938 C 132 71.1875 132.117188 72.347656 132.1875 73.414062 C 132.351562 75.820312 132.714844 78.46875 132.9375 78.890625 C 133.03125 79.078125 133.371094 79.539062 133.699219 79.914062 C 134.121094 80.40625 134.414062 80.921875 134.707031 81.707031 C 135.09375 82.679688 135.222656 82.878906 135.972656 83.617188 C 136.429688 84.074219 136.839844 84.4375 136.886719 84.4375 C 136.933594 84.4375 137.402344 84.957031 137.917969 85.578125 C 138.832031 86.703125 139.394531 87.21875 140.566406 87.980469 C 141.105469 88.332031 141.222656 88.507812 141.949219 89.953125 C 143.308594 92.671875 143.636719 93.65625 144.199219 96.871094 C 144.667969 99.53125 145.324219 101.574219 147.855469 108.292969 L 149.085938 111.554688 L 149.039062 113.113281 C 149.003906 114.636719 148.992188 114.683594 148.652344 115.175781 C 148.242188 115.765625 146.90625 116.878906 146.507812 116.984375 C 146.121094 117.078125 145.863281 116.902344 145.019531 115.90625 C 144.082031 114.8125 143.601562 113.851562 143.4375 112.761719 C 143.132812 110.6875 143.027344 110.207031 142.605469 108.714844 C 142.359375 107.847656 141.925781 106.441406 141.644531 105.609375 C 140.027344 100.882812 138.984375 99.015625 137.074219 97.503906 C 135.621094 96.355469 134.355469 95.78125 132.1875 95.289062 C 131.191406 95.066406 129.65625 94.640625 128.789062 94.347656 C 124.96875 93.09375 120.644531 91.828125 120.175781 91.828125 C 119.4375 91.828125 119.191406 92.085938 119.0625 93 C 118.910156 94.066406 119.167969 96.484375 119.894531 100.917969 C 120.375 103.894531 120.375 103.988281 119.578125 105.773438 C 118.675781 107.789062 117.070312 110.957031 116.484375 111.882812 C 116.214844 112.304688 115.382812 113.253906 114.632812 113.992188 C 113.882812 114.730469 112.136719 116.679688 110.753906 118.308594 C 109.371094 119.949219 108.058594 121.40625 107.824219 121.558594 C 107.4375 121.816406 107.214844 121.839844 104.824219 121.96875 C 100.78125 122.167969 99.117188 122.167969 98.753906 121.980469 C 98.296875 121.734375 98.039062 121.101562 97.992188 120.089844 C 97.957031 119.28125 97.980469 119.175781 98.285156 118.730469 C 98.753906 118.050781 99.351562 117.570312 100.382812 117.03125 L 101.285156 116.5625 L 102.304688 116.644531 C 103.125 116.703125 103.40625 116.679688 103.734375 116.527344 C 104.285156 116.257812 108.796875 111.390625 109.675781 110.097656 C 110.496094 108.878906 110.613281 107.730469 110.039062 106.511719 C 109.429688 105.210938 106.230469 100.730469 104.121094 98.21875 C 102.257812 96.003906 101.695312 95.089844 101.027344 93.210938 C 100.558594 91.863281 100.429688 91.628906 99.820312 91.054688 C 99.199219 90.457031 98.507812 90.09375 97.664062 89.941406 C 97.136719 89.847656 96.820312 89.871094 95.824219 90.070312 C 94.464844 90.363281 94.382812 90.351562 90.644531 89.824219 C 87.597656 89.386719 86.367188 89.304688 80.976562 89.117188 C 75.492188 88.941406 72.925781 89.058594 71.847656 89.539062 C 71.460938 89.71875 70.570312 90 69.878906 90.175781 L 68.613281 90.480469 L 68.636719 91.125 C 68.660156 91.886719 69.644531 97.433594 70.78125 103.273438 C 71.765625 108.28125 72 109.898438 72.304688 113.78125 C 72.574219 117.207031 72.585938 118.074219 72.410156 118.90625 C 72.152344 120.101562 71.613281 120.429688 69.738281 120.527344 C 68.25 120.597656 64.195312 120.183594 63.785156 119.902344 C 63.632812 119.808594 63.492188 119.585938 63.445312 119.410156 C 63.410156 119.234375 63.304688 118.859375 63.210938 118.578125 C 63 117.898438 63 116.890625 63.222656 116.46875 C 63.492188 115.941406 64.007812 115.578125 65.15625 115.09375 C 67.136719 114.273438 67.148438 114.132812 65.296875 109.535156 C 63.679688 105.515625 62.472656 103.050781 59.589844 97.925781 C 57.761719 94.664062 57.480469 94.242188 56.894531 93.726562 C 55.722656 92.683594 54.1875 92.320312 49.3125 91.910156 C 47.695312 91.769531 47.425781 91.722656 47.027344 91.453125 C 46.78125 91.289062 46.464844 91.125 46.324219 91.078125 C 45.902344 90.9375 45.210938 91.207031 44.589844 91.746094 C 44.273438 92.027344 43.476562 92.554688 42.820312 92.917969 C 40.628906 94.148438 39.46875 95.148438 38.671875 96.507812 C 38.132812 97.433594 36.023438 99.601562 34.628906 100.660156 C 34.113281 101.046875 32.976562 102.089844 32.109375 102.980469 C 30.363281 104.75 29.4375 105.480469 25.546875 108.128906 C 21.914062 110.59375 20.800781 111.496094 18.351562 113.910156 C 16.183594 116.046875 15.65625 116.433594 14.578125 116.703125 C 13.699219 116.914062 13.148438 117.21875 12.1875 117.980469 C 10.664062 119.1875 9.457031 119.644531 7.324219 119.808594 C 5.871094 119.914062 2.15625 119.527344 1.652344 119.222656 C 1.582031 119.175781 1.382812 118.90625 1.21875 118.613281 C 0.808594 117.921875 0.796875 117.136719 1.195312 116.433594 C 1.429688 116 1.617188 115.859375 2.519531 115.402344 L 3.574219 114.882812 L 5.214844 114.8125 C 6.328125 114.765625 6.996094 114.683594 7.277344 114.554688 C 7.875 114.296875 9 113.277344 11.449219 110.816406 C 15.328125 106.886719 16.804688 105.117188 19.816406 100.800781 C 22.007812 97.65625 22.453125 96.894531 23.414062 94.535156 C 24.878906 90.996094 24.84375 91.171875 24.84375 88.425781 C 24.84375 87.101562 24.914062 84.652344 25.007812 82.972656 C 25.101562 81.296875 25.207031 79.054688 25.253906 77.988281 C 25.289062 76.921875 25.382812 75.363281 25.441406 74.519531 C 25.59375 72.664062 25.511719 72.277344 24.539062 69.980469 C 23.625 67.808594 22.59375 65.851562 21.867188 64.902344 C 21.375 64.257812 21.105469 64.019531 20.496094 63.714844 C 20.085938 63.503906 19.734375 63.28125 19.710938 63.210938 C 19.628906 62.964844 18.269531 62.015625 17.4375 61.628906 C 16.183594 61.042969 15.210938 60.914062 13.359375 61.101562 C 12.152344 61.230469 11.707031 61.230469 11.203125 61.113281 C 10.441406 60.949219 9.316406 60.246094 8.894531 59.683594 C 8.4375 59.074219 7.242188 57.066406 6.632812 55.882812 C 5.707031 54.078125 5.859375 53.640625 8.238281 51.203125 C 9.1875 50.230469 9.785156 49.363281 11.050781 47.085938 C 12.28125 44.871094 13.699219 43.519531 15.902344 42.441406 C 17.296875 41.761719 17.730469 41.433594 18.082031 40.765625 C 18.375 40.214844 18.398438 39.441406 18.234375 36.742188 C 18.117188 34.914062 18.164062 34.714844 18.738281 34.714844 C 18.949219 34.714844 19.171875 34.574219 19.464844 34.222656 C 19.851562 33.777344 19.910156 33.742188 20.097656 33.894531 C 20.214844 33.988281 21.1875 35.066406 22.265625 36.296875 C 23.34375 37.515625 24.503906 38.796875 24.855469 39.125 C 25.945312 40.144531 27.398438 41.140625 28.757812 41.796875 C 29.472656 42.148438 30.726562 42.757812 31.546875 43.144531 C 32.71875 43.710938 33.457031 44.179688 34.945312 45.304688 C 36.902344 46.78125 40.886719 49.5625 41.835938 50.101562 C 42.679688 50.582031 43.875 50.96875 46.183594 51.484375 C 49.101562 52.128906 50.238281 52.304688 51.621094 52.304688 C 53.027344 52.304688 54.152344 52.082031 55.171875 51.601562 C 55.96875 51.226562 56.109375 51.203125 59.648438 50.710938 C 60.84375 50.546875 63.902344 50.101562 66.445312 49.714844 C 78.773438 47.847656 80.71875 47.601562 92.460938 46.5 C 95.976562 46.171875 98.8125 46.054688 101.660156 46.125 C 106.03125 46.242188 108.421875 46.488281 112.207031 47.238281 C 114.082031 47.601562 114.679688 47.671875 115.957031 47.671875 C 118.441406 47.671875 119.449219 47.238281 122.003906 45.070312 C 124.957031 42.570312 125.976562 41.410156 126.949219 39.464844 C 129.28125 34.773438 130.464844 30.902344 131.414062 24.851562 C 132.398438 18.625 131.425781 14.660156 128.144531 11.445312 C 126.152344 9.488281 123.867188 8.328125 122.027344 8.328125 C 120.492188 8.328125 119.238281 8.890625 117.445312 10.378906 C 116.121094 11.46875 115.535156 11.761719 114.609375 11.761719 C 112.851562 11.773438 112.464844 10.648438 113.203125 7.632812 C 113.625 5.910156 113.835938 5.417969 114.457031 4.621094 C 115.839844 2.886719 119.273438 1.253906 122.191406 0.949219 C 123.222656 0.84375 123.761719 0.878906 124.640625 1.125 Z M 124.640625 1.125 "/>
</g>
</svg>
